<?xml version="1.0" standalone="no"?>
<!DOCTYPE svg PUBLIC "-//W3C//DTD SVG 20010904//EN"
 "http://www.w3.org/TR/2001/REC-SVG-20010904/DTD/svg10.dtd">
<svg version="1.0" xmlns="http://www.w3.org/2000/svg"
 width="381.000000pt" height="217.000000pt" viewBox="0 0 381.000000 217.000000"
 preserveAspectRatio="xMidYMid meet">

<g transform="translate(0.000000,217.000000) scale(0.100000,-0.100000)"
fill="#000000" stroke="none">
<path d="M170 1591 c0 -375 1 -410 17 -413 9 -2 788 -2 1730 0 l1713 2 0 410
0 410 -1730 0 -1730 0 0 -409z m1148 282 c26 -35 -8 -113 -50 -113 -28 0 -23
46 8 66 31 21 19 36 -23 28 -98 -20 -285 -255 -315 -396 -14 -67 -5 -103 34
-140 27 -25 37 -28 97 -28 36 0 111 12 166 25 134 33 260 50 317 41 28 -4 71
-23 109 -47 96 -62 120 -92 47 -59 -59 27 -137 26 -172 -1 -27 -21 -27 -21
-41 -2 -8 12 -36 31 -62 43 -60 28 -121 24 -243 -16 -110 -36 -227 -39 -280
-9 -43 25 -80 94 -80 151 0 48 30 140 64 198 32 54 169 196 227 234 80 53 168
64 197 25z m1231 -19 c35 -19 67 -37 72 -40 12 -7 -7 -41 -30 -53 -13 -8 -27
-4 -55 15 -59 40 -132 74 -160 74 -22 0 -26 -5 -26 -27 0 -45 -44 -127 -86
-162 -50 -41 -97 -41 -102 1 -5 45 49 130 108 171 19 13 21 17 7 17 -33 0
-102 -52 -185 -138 -168 -177 -241 -412 -128 -412 56 0 152 118 163 199 3 23
3 41 0 41 -21 0 -41 -19 -62 -59 -20 -39 -81 -101 -99 -101 -13 0 -5 38 18 85
56 122 176 153 176 46 -1 -107 -128 -253 -233 -267 -39 -6 -48 -3 -78 24 -32
29 -34 34 -34 99 0 74 32 156 96 249 49 71 178 195 244 234 55 33 65 35 147
36 49 1 91 4 95 8 14 13 88 -6 152 -40z m266 17 c3 -10 1 -30 -4 -45 -15 -37
3 -34 77 14 34 22 62 35 62 30 0 -5 -21 -31 -47 -58 -59 -60 -126 -92 -194
-92 l-51 0 24 29 c16 20 34 30 58 33 19 1 35 8 35 15 0 6 3 15 8 19 12 12 8
34 -7 34 -38 0 -283 -317 -261 -338 4 -4 50 39 104 96 91 94 136 129 112 85
-16 -29 -166 -179 -215 -214 -31 -21 -50 -45 -61 -73 -36 -97 -14 -122 42 -46
135 182 191 233 236 213 12 -6 39 -8 60 -5 22 2 37 0 37 -6 0 -6 -29 -61 -65
-123 -36 -61 -64 -116 -62 -122 1 -5 24 14 49 42 49 54 78 69 57 29 -19 -36
-112 -130 -138 -139 -33 -13 -61 -2 -61 23 l0 21 -22 -21 c-33 -30 -71 -37
-92 -17 -9 9 -16 21 -16 27 0 7 -10 2 -22 -10 -34 -30 -71 -37 -93 -16 -17 18
-17 74 0 132 12 37 -18 27 -40 -14 -26 -48 -108 -121 -146 -129 -46 -10 -62 9
-57 70 7 85 118 230 196 256 30 10 37 9 55 -9 18 -19 19 -24 7 -67 -7 -25 -10
-48 -7 -51 11 -12 28 9 61 74 45 88 110 176 195 261 97 97 172 135 186 92z
m-1489 -156 c11 -17 14 -35 10 -60 -4 -19 -5 -35 -3 -35 3 0 26 18 53 40 26
21 66 49 90 61 40 22 43 22 68 6 31 -21 33 -41 6 -84 -21 -36 -47 -43 -57 -16
-4 10 3 24 20 39 15 13 27 26 27 29 0 9 -20 6 -33 -5 -7 -6 -21 -18 -33 -28
-54 -45 -110 -154 -98 -187 8 -19 43 -19 69 1 11 8 51 54 90 102 39 47 90 101
113 118 37 29 48 32 112 32 38 0 70 -4 70 -9 0 -5 -19 -39 -43 -76 -81 -128
-99 -163 -83 -163 7 0 32 21 53 46 52 62 77 55 28 -8 -41 -55 -120 -118 -146
-118 -10 0 -23 9 -29 19 -10 19 -11 19 -49 -2 -33 -18 -41 -19 -55 -8 -9 7
-16 24 -16 37 0 30 -11 30 -36 3 -45 -50 -110 -63 -144 -29 -24 24 -26 66 -4
120 9 23 14 43 11 46 -3 3 -31 -29 -63 -72 -82 -109 -144 -141 -178 -92 -47
66 27 209 147 286 61 39 81 40 103 7z m614 7 c0 -23 -34 -52 -61 -52 -33 0
-35 6 -13 38 14 21 74 33 74 14z"/>
<path d="M2278 1803 c-64 -49 -112 -143 -73 -143 26 0 83 60 100 105 24 61 16
71 -27 38z"/>
<path d="M2312 1528 c-21 -21 -7 -88 18 -88 12 0 33 68 26 85 -7 18 -28 19
-44 3z"/>
<path d="M2661 1475 c-52 -55 -81 -107 -81 -145 0 -26 12 -25 37 3 22 24 82
116 107 166 26 50 -3 39 -63 -24z"/>
<path d="M2244 1426 c-33 -51 -48 -96 -37 -107 15 -15 44 2 75 43 39 52 39 54
10 75 l-28 21 -20 -32z"/>
<path d="M1260 1680 c-19 -27 -19 -40 2 -54 23 -14 38 1 41 40 3 35 -22 43
-43 14z"/>
<path d="M1671 1644 c-57 -62 -91 -121 -91 -155 0 -22 1 -22 31 7 27 26 129
182 129 198 0 17 -23 0 -69 -50z"/>
<path d="M1181 1576 c-50 -86 -38 -129 21 -77 18 16 40 42 49 58 16 27 16 29
-11 51 l-28 22 -31 -54z"/>
<path d="M170 580 l0 -410 1730 0 1730 0 0 410 0 410 -1730 0 -1730 0 0 -410z
m2555 294 l40 -19 6 -75 c3 -41 4 -79 2 -83 -3 -4 -26 12 -53 37 -55 51 -115
75 -149 57 -25 -14 -27 -43 -5 -66 9 -9 42 -29 74 -45 79 -40 114 -72 144
-132 l25 -51 19 44 c10 24 45 113 78 197 32 83 62 152 66 152 4 0 28 -39 54
-87 208 -385 281 -509 308 -522 52 -24 14 -33 -128 -30 -162 5 -155 0 -236
152 -51 95 -58 102 -88 105 -41 4 -68 -25 -76 -85 -10 -78 -56 -140 -123 -168
-52 -22 -184 -20 -231 3 -84 41 -82 38 -82 129 0 46 4 83 9 83 5 0 21 -15 37
-33 44 -50 88 -77 126 -77 40 0 58 15 58 47 0 29 -29 55 -96 88 -29 14 -71 46
-92 70 -96 110 -74 247 50 310 48 24 61 26 138 22 54 -3 99 -11 125 -23z
m-1783 -61 c17 -80 13 -97 -13 -54 -31 51 -74 71 -151 71 l-68 0 0 -115 0
-115 85 0 c60 0 87 4 89 13 2 6 7 21 11 32 l7 20 9 -20 c14 -31 48 -195 40
-195 -3 0 -15 14 -26 30 -29 43 -95 72 -158 68 l-52 -3 -3 -105 c-3 -106 7
-154 34 -164 8 -3 14 -10 14 -16 0 -12 -144 -13 -232 -3 l-48 6 0 284 0 284
-26 24 -27 25 250 0 250 0 15 -67z m535 2 c18 -78 13 -100 -11 -58 -29 48 -82
73 -155 73 l-61 0 0 -115 0 -115 78 0 c82 0 102 9 102 44 0 41 19 -1 39 -87
12 -49 21 -93 21 -98 0 -18 -15 -8 -31 20 -23 39 -93 71 -157 71 l-52 0 0
-125 0 -125 58 0 c69 1 120 24 147 67 11 18 24 32 29 33 9 0 1 -54 -17 -109
l-12 -36 -215 1 -215 1 -5 287 c-5 283 -5 288 -27 306 -13 10 -23 21 -23 24 0
4 111 5 247 4 l246 -3 14 -60z m335 56 c15 -6 43 -45 83 -120 85 -160 112
-161 134 -4 21 149 4 134 150 131 l126 -3 5 -288 c5 -286 5 -288 28 -305 13
-10 20 -21 16 -25 -4 -4 -67 -7 -140 -7 l-134 0 -2 203 -3 202 -74 -185 c-107
-268 -97 -252 -125 -192 -10 20 -61 116 -114 212 l-97 175 -3 -180 -3 -180 28
-22 c34 -28 19 -35 -58 -31 l-54 3 -5 288 c-5 285 -5 289 -27 307 -13 10 -23
21 -23 24 0 10 266 7 292 -3z"/>
</g>
</svg>
