<?xml version="1.0" standalone="no"?>
<!DOCTYPE svg PUBLIC "-//W3C//DTD SVG 20010904//EN"
 "http://www.w3.org/TR/2001/REC-SVG-20010904/DTD/svg10.dtd">
<svg version="1.0" xmlns="http://www.w3.org/2000/svg"
 width="1840.000000pt" height="1351.000000pt" viewBox="0 0 1840.000000 1351.000000"
 preserveAspectRatio="xMidYMid meet">

<g transform="translate(0.000000,1351.000000) scale(0.100000,-0.100000)"
fill="#000000" stroke="none">
<path d="M9714 12355 c-8 -43 0 -85 26 -139 10 -23 28 -62 39 -88 16 -39 25
-48 44 -48 14 0 30 -7 37 -15 7 -8 18 -15 25 -15 22 0 65 -41 80 -76 8 -20 21
-34 31 -34 10 0 26 -8 36 -17 16 -15 26 -15 81 -4 34 7 85 11 112 10 35 -1 69
6 115 25 36 15 75 31 88 36 26 11 47 52 39 73 -7 20 -175 113 -316 177 -100
45 -394 150 -420 150 -6 0 -13 -16 -17 -35z"/>
<path d="M8060 12321 c-264 -95 -463 -200 -690 -363 -138 -99 -136 -97 -159
-172 -22 -72 -26 -106 -13 -106 25 0 125 86 180 155 109 137 146 171 224 208
92 44 146 59 167 47 9 -4 25 -32 36 -62 l21 -53 106 -3 c105 -3 106 -2 165 32
106 62 121 98 90 211 -10 40 -17 86 -14 108 3 20 2 37 -1 36 -4 0 -54 -17
-112 -38z"/>
<path d="M7643 11713 c-28 -22 -74 -44 -111 -55 -49 -13 -78 -30 -125 -71 -34
-29 -96 -77 -138 -105 -72 -48 -155 -137 -189 -202 -7 -14 -28 -45 -47 -69
-26 -34 -33 -53 -33 -87 0 -42 1 -44 30 -44 23 0 44 12 79 45 26 25 50 45 53
45 11 0 30 -59 26 -82 -2 -18 -10 -24 -37 -26 -19 -2 -73 -26 -120 -54 -119
-71 -119 -71 -111 -116 4 -24 1 -44 -8 -59 -12 -20 -11 -23 17 -38 17 -8 31
-19 31 -23 0 -12 -130 -152 -141 -152 -5 0 1 20 13 45 12 24 19 48 15 51 -4 4
-24 -5 -45 -20 -50 -34 -109 -36 -114 -3 -3 22 -4 22 -31 -7 -18 -19 -27 -40
-27 -62 0 -36 -42 -95 -123 -173 -125 -118 -156 -150 -195 -199 -39 -50 -41
-55 -27 -75 8 -12 15 -32 15 -44 0 -32 9 -29 62 20 37 34 47 51 53 87 12 80
14 84 35 65 13 -12 27 -15 49 -10 43 9 40 -9 -12 -72 -115 -142 -165 -210
-218 -300 -27 -47 -32 -51 -50 -40 -22 13 -22 29 7 227 56 386 202 777 408
1095 36 55 64 101 62 102 -3 3 -1678 -286 -1683 -290 -1 -2 157 -169 352 -373
l355 -369 -228 -6 c-125 -4 -414 -8 -642 -9 -228 -1 -476 -5 -551 -9 l-136 -6
1209 -1140 c736 -694 1216 -1139 1226 -1138 9 1 361 95 781 208 420 113 766
205 769 205 3 0 -20 19 -50 43 -299 227 -1478 1150 -1478 1157 0 5 15 20 33
33 36 27 88 35 271 43 l110 4 41 -45 c23 -25 47 -45 53 -45 7 0 1 28 -14 73
-48 141 -67 259 -67 427 0 121 5 177 22 257 26 123 70 251 122 355 33 66 37
81 28 105 -7 23 -5 44 11 94 11 35 20 87 20 116 0 58 15 77 30 38 8 -22 13
-24 30 -15 16 8 63 84 89 144 2 4 -14 -3 -35 -18 -57 -39 -68 -35 -59 20 6 42
4 48 -29 85 -20 21 -36 43 -36 48 0 18 103 101 162 130 34 17 63 30 64 28 11
-10 4 -88 -9 -114 -20 -38 -22 -73 -4 -73 6 1 26 24 42 52 23 39 46 62 96 92
78 49 166 116 173 134 9 20 -15 62 -35 62 -11 0 -42 -9 -71 -20 -29 -11 -57
-20 -62 -20 -18 0 20 33 65 56 40 20 49 30 55 59 7 37 1 65 -15 65 -5 0 -31
-17 -58 -37z"/>
<path d="M8067 11604 c-20 -23 -37 -34 -55 -34 -15 0 -64 -5 -109 -11 l-82
-12 -3 -66 -3 -66 -55 -5 c-72 -7 -131 -43 -203 -124 l-57 -65 40 -11 c33 -9
40 -15 40 -36 l0 -25 58 39 c117 80 308 164 434 192 73 16 97 41 105 109 6 49
34 103 47 90 3 -3 9 -29 13 -59 5 -29 13 -55 19 -57 17 -6 146 125 142 145 -2
9 -16 21 -32 27 -25 8 -31 6 -54 -23 l-27 -32 -40 21 c-22 11 -59 22 -82 23
-24 1 -46 5 -49 9 -11 11 -17 8 -47 -29z"/>
<path d="M11127 11533 c-3 -2 26 -43 64 -91 411 -512 628 -1169 605 -1832 -3
-102 -9 -201 -14 -220 l-8 -35 -194 -52 c-268 -72 -244 -68 -258 -38 -14 31
-28 26 -37 -14 -6 -27 -13 -31 -88 -51 -45 -12 -153 -41 -240 -65 -87 -23
-155 -40 -150 -36 4 4 28 23 52 41 44 34 80 96 64 111 -4 4 -27 3 -49 -3 -28
-8 -53 -8 -75 -2 -31 9 -33 13 -47 84 -8 41 -16 77 -18 79 -2 2 -15 -1 -28 -9
-40 -21 -57 -7 -50 39 8 49 -16 93 -59 109 l-31 12 29 30 29 30 -29 29 -28 30
32 49 c30 48 40 102 23 129 -4 7 -25 16 -47 21 l-39 8 37 41 c42 46 44 59 18
134 -10 31 -22 80 -26 110 -9 68 -18 85 -55 104 -47 24 -51 42 -31 134 10 45
23 87 29 93 38 38 -14 148 -118 248 l-78 76 -13 79 c-12 72 -17 84 -51 118
-44 42 -72 47 -96 17 -10 -11 -42 -27 -72 -35 -30 -8 -59 -22 -65 -31 -5 -10
-27 -37 -49 -61 -29 -32 -46 -43 -68 -43 -21 0 -38 -10 -62 -36 -17 -19 -45
-44 -61 -54 -28 -18 -29 -18 -53 1 -14 10 -37 18 -51 18 -14 -1 -42 1 -61 5
-23 5 -41 3 -53 -6 -17 -12 -15 -20 33 -112 55 -109 98 -234 127 -366 20 -96
24 -378 6 -462 -6 -27 -9 -48 -8 -48 1 0 19 7 38 15 20 8 50 15 66 15 37 0
186 -97 265 -174 33 -31 71 -64 85 -72 31 -19 105 -117 126 -168 10 -24 27
-42 52 -53 21 -10 40 -27 43 -39 5 -22 78 -111 150 -184 47 -47 99 -70 160
-70 18 0 31 -2 29 -4 -2 -3 -72 -22 -154 -45 -83 -22 -476 -128 -875 -236
-399 -107 -903 -243 -1120 -302 -217 -58 -398 -109 -403 -112 -9 -9 1542
-1165 1563 -1165 16 0 4630 1723 4642 1733 4 4 -414 139 -930 301 -515 161
-940 296 -944 299 -4 3 371 212 833 465 462 252 839 460 837 461 -2 2 -664
234 -1473 515 -808 282 -1493 520 -1522 530 -28 10 -54 16 -56 13z"/>
<path d="M7030 11460 c-30 -28 -62 -50 -71 -50 -9 0 -48 -26 -86 -58 -38 -32
-85 -68 -105 -80 -44 -27 -81 -83 -76 -114 3 -20 10 -24 63 -28 57 -5 60 -6
65 -35 4 -23 11 -31 30 -33 14 -2 33 -11 43 -20 9 -8 19 -13 22 -10 3 3 10 34
16 69 13 76 57 175 109 245 29 39 40 64 45 107 4 32 6 57 4 57 -2 -1 -29 -23
-59 -50z"/>
<path d="M6804 10906 c-25 -11 -36 -26 -53 -70 -27 -73 -27 -76 7 -76 35 0
107 59 116 95 7 28 -8 65 -27 65 -7 -1 -26 -7 -43 -14z"/>
<path d="M6559 10674 c-22 -23 -29 -25 -76 -19 l-52 6 -30 -42 c-17 -23 -31
-50 -31 -59 0 -10 -14 -44 -31 -76 -28 -52 -59 -141 -59 -169 0 -20 184 183
244 270 35 50 66 96 70 103 13 21 -10 13 -35 -14z"/>
<path d="M5910 8544 c0 -10 23 -236 51 -502 l50 -483 1131 -1242 c622 -683
1142 -1254 1157 -1269 l26 -28 1974 845 c1086 465 1975 846 1977 848 5 4 114
1440 110 1444 -2 3 -2417 -903 -2618 -982 l-36 -14 -459 348 c-252 191 -604
459 -783 594 -179 136 -334 247 -345 247 -11 0 -331 -86 -710 -191 -380 -105
-725 -200 -768 -211 l-78 -21 -32 29 c-18 17 -158 149 -312 294 -372 350 -335
318 -335 294z m1900 -1564 c107 -101 203 -191 212 -199 14 -14 20 -84 42 -556
14 -297 27 -562 29 -588 2 -26 0 -46 -4 -45 -5 2 -127 132 -273 289 l-265 287
-35 553 c-20 305 -36 558 -36 564 0 5 30 -20 68 -56 37 -36 155 -148 262 -249z
m4324 19 c-14 -163 -24 -213 -38 -198 -8 9 28 374 38 381 6 4 12 6 13 4 2 -2
-4 -86 -13 -187z m-89 -41 c-15 -161 -25 -213 -38 -197 -3 2 3 85 12 184 15
164 24 215 38 201 3 -2 -3 -87 -12 -188z m-69 -31 c-9 -91 -16 -172 -16 -181
0 -9 -7 -16 -16 -16 -10 0 -14 6 -10 18 2 9 10 87 16 172 6 85 16 166 22 180
19 43 20 1 4 -173z m-69 121 c-3 -18 -11 -104 -18 -191 -12 -154 -13 -159 -37
-168 -14 -5 -27 -8 -29 -5 -2 2 3 80 11 174 9 93 16 176 16 184 0 14 32 36 54
37 4 1 6 -14 3 -31z m-107 -33 c0 -8 -7 -92 -16 -187 -13 -151 -24 -203 -37
-187 -3 3 28 376 32 387 4 9 21 -1 21 -13z m-40 -42 c-1 -63 -28 -334 -34
-340 -16 -16 -18 17 -7 139 18 202 23 238 32 238 5 0 9 -17 9 -37z m-34 -10
c-3 -21 -11 -105 -17 -188 -11 -136 -19 -178 -34 -163 -5 5 23 353 30 376 3 6
9 12 16 12 7 0 9 -13 5 -37z m-36 0 c0 -10 -7 -90 -15 -178 -8 -88 -15 -166
-15 -172 0 -7 -6 -13 -13 -13 -10 0 -9 39 4 188 19 214 16 192 29 192 6 0 10
-8 10 -17z m-70 -23 c0 -18 -31 -355 -33 -363 -2 -5 -17 -15 -35 -23 -38 -16
-37 -24 -22 159 17 201 18 205 48 222 32 17 42 18 42 5z m-124 -67 c-2 -10
-10 -94 -17 -186 -11 -148 -19 -190 -35 -175 -2 3 3 81 11 174 8 93 15 177 15
187 0 9 7 17 16 17 10 0 14 -6 10 -17z m-66 -35 c0 -50 -30 -351 -35 -356 -15
-15 -17 21 -6 155 6 81 14 165 17 186 6 40 24 51 24 15z m-55 -179 c-13 -147
-19 -187 -32 -196 -38 -29 -39 -22 -23 174 15 179 17 189 43 200 12 6 23 9 25
8 2 -1 -4 -85 -13 -186z m-119 99 c-3 -13 -10 -95 -17 -183 -10 -143 -19 -189
-34 -174 -2 3 2 79 10 170 8 90 15 174 15 187 0 13 6 22 15 22 11 0 14 -7 11
-22z m-56 -30 c0 -43 -20 -297 -25 -324 -4 -19 -60 -53 -69 -43 -2 2 2 72 10
154 7 83 13 164 14 182 0 25 6 36 28 47 38 21 42 20 42 -16z m-110 -50 c0 -42
-20 -297 -25 -324 -4 -19 -42 -44 -66 -44 -5 0 -7 10 -5 23 3 12 10 95 17 185
12 160 12 163 38 177 37 20 41 19 41 -17z m-90 -30 c0 -50 -30 -351 -35 -356
-15 -15 -16 21 -6 160 6 84 14 168 17 186 6 36 24 44 24 10z m-40 -15 c-1 -50
-30 -356 -34 -361 -16 -15 -17 20 -7 160 6 84 14 168 17 186 5 33 24 45 24 15z"/>
<path d="M7504 7174 c3 -32 11 -142 17 -244 l11 -185 121 -122 c67 -67 122
-121 124 -120 1 2 -4 113 -12 247 l-14 244 -78 79 c-43 43 -100 97 -127 120
l-48 41 6 -60z m111 -278 c4 -117 4 -118 -15 -101 -15 14 -20 31 -20 73 0 31
-5 83 -11 116 -8 46 -7 69 2 91 l12 30 14 -45 c8 -25 16 -98 18 -164z m85 50
c13 -49 20 -256 9 -256 -19 0 -30 37 -35 121 -4 52 -10 99 -15 104 -10 13 11
100 21 88 4 -4 13 -30 20 -57z m20 -325 l0 -35 -65 64 c-55 55 -65 70 -65 99
l0 35 65 -64 c55 -55 65 -70 65 -99z"/>
<path d="M7770 6973 c0 -4 7 -118 15 -253 l15 -245 126 -125 c93 -93 124 -119
120 -100 -3 14 -8 97 -11 185 -3 88 -8 194 -11 236 l-6 75 -124 118 c-68 65
-124 114 -124 109z m100 -184 c0 -29 14 -40 23 -16 3 8 19 -2 43 -26 36 -34
39 -42 38 -89 0 -42 -5 -55 -27 -74 -38 -33 -37 -95 3 -174 17 -33 30 -63 30
-67 0 -4 -27 19 -60 52 -33 33 -60 63 -60 66 0 4 10 9 23 11 20 3 22 7 18 62
-1 33 -9 69 -17 81 -21 32 -51 125 -59 184 l-7 53 26 -17 c18 -12 26 -26 26
-46z"/>
<path d="M7880 6741 c0 -6 4 -13 10 -16 6 -3 7 1 4 9 -7 18 -14 21 -14 7z"/>
<path d="M7540 6655 c0 -28 7 -143 14 -258 l14 -207 33 -38 c18 -20 72 -80
121 -132 83 -89 88 -93 88 -65 -1 17 -7 135 -15 263 l-13 233 -70 77 c-39 42
-93 99 -121 127 l-51 49 0 -49z m117 -149 c33 -28 88 -140 99 -201 l7 -40 -41
43 c-22 23 -42 42 -44 42 -2 0 0 -36 5 -79 10 -79 6 -111 -12 -111 -12 0 -43
68 -38 83 3 7 10 -1 18 -18 12 -30 13 -30 17 -6 2 14 1 53 -3 87 -6 57 -10 67
-52 108 -36 37 -43 49 -38 68 17 54 39 60 82 24z"/>
<path d="M7804 6365 c4 -38 11 -158 17 -265 l11 -194 31 -36 c17 -19 70 -78
119 -130 l88 -95 0 60 c0 33 -5 155 -11 270 l-11 210 -124 125 -125 125 5 -70z
m65 -101 c12 -15 21 -34 22 -43 0 -10 2 -12 6 -3 7 18 23 4 23 -20 0 -12 3
-18 7 -14 4 3 22 -8 40 -26 29 -28 33 -39 35 -87 l1 -56 7 50 c8 62 17 42 23
-49 l5 -70 -52 56 c-155 169 -142 150 -150 222 -7 72 0 82 33 40z m1 -175 c0
-19 77 -96 91 -92 5 2 16 -9 26 -25 9 -15 25 -37 36 -49 24 -27 38 -149 16
-141 -8 3 -13 13 -13 22 1 9 -2 16 -7 16 -5 0 -18 8 -29 17 -16 14 -20 31 -22
88 -2 67 -2 67 -5 15 -5 -64 -18 -84 -32 -48 -5 14 -25 41 -45 59 -33 31 -36
40 -42 109 -7 69 -6 74 9 61 10 -7 17 -22 17 -32z"/>
<path d="M1345 3901 c-408 -66 -739 -361 -880 -784 -151 -453 -120 -1099 71
-1479 163 -326 406 -525 719 -589 62 -13 132 -19 225 -19 300 0 490 79 702
292 l98 97 0 -169 0 -170 135 0 135 0 0 670 0 670 -480 0 -480 0 0 -135 0
-135 347 0 346 0 -6 -112 c-4 -62 -16 -150 -27 -195 -60 -252 -253 -451 -515
-533 -96 -30 -264 -38 -365 -16 -90 19 -233 88 -312 150 -261 208 -412 678
-378 1180 24 359 111 590 296 785 145 154 321 239 515 249 193 9 352 -49 491
-177 118 -109 198 -237 249 -398 13 -40 28 -73 33 -73 15 0 280 52 285 56 2 2
-11 47 -29 101 -97 300 -264 500 -525 629 -158 77 -272 105 -455 109 -80 2
-167 0 -195 -4z"/>
<path d="M3245 3848 c-3 -7 -4 -632 -3 -1388 l3 -1375 135 0 135 0 0 1385 0
1385 -133 3 c-100 2 -134 -1 -137 -10z"/>
<path d="M6405 3848 c-3 -7 -4 -632 -3 -1388 l3 -1375 133 -3 132 -3 0 126 c0
69 3 125 6 125 3 0 27 -17 53 -39 123 -103 246 -172 381 -216 74 -25 101 -28
215 -29 157 -1 218 13 360 83 304 151 475 489 475 940 0 363 -93 608 -307 811
-93 88 -178 140 -288 177 -71 24 -96 27 -220 27 -110 1 -154 -3 -205 -18 -159
-47 -312 -126 -404 -208 -30 -26 -57 -48 -60 -48 -3 0 -6 236 -6 525 l0 525
-130 0 c-95 0 -132 -3 -135 -12z m1029 -1013 c206 -54 363 -223 428 -460 19
-70 22 -106 22 -295 1 -192 -2 -225 -22 -305 -13 -49 -39 -124 -60 -165 -44
-90 -144 -199 -228 -250 -146 -88 -351 -91 -552 -8 -64 27 -271 156 -329 207
l-23 19 0 490 0 490 48 42 c123 109 284 199 415 231 90 22 225 24 301 4z"/>
<path d="M10860 2470 l0 -1390 135 0 135 0 0 1390 0 1390 -135 0 -135 0 0
-1390z"/>
<path d="M11667 3853 c-4 -3 -7 -64 -7 -135 l0 -128 445 0 445 0 0 -1255 0
-1255 135 0 135 0 0 1255 0 1255 440 0 440 0 0 135 0 135 -1013 0 c-558 0
-1017 -3 -1020 -7z"/>
<path d="M15430 3670 l0 -160 140 0 140 0 0 160 0 160 -140 0 -140 0 0 -160z"/>
<path d="M4805 3073 c-332 -71 -564 -305 -654 -658 -31 -120 -41 -205 -41
-356 0 -340 95 -588 303 -785 126 -121 264 -189 440 -220 432 -76 831 195 952
648 109 409 12 873 -239 1137 -190 199 -491 292 -761 234z m286 -223 c130 -24
280 -130 357 -253 90 -144 125 -289 124 -527 0 -251 -47 -421 -154 -564 -263
-349 -748 -299 -948 99 -72 144 -84 207 -84 465 0 255 10 315 81 459 47 96
169 222 259 269 108 56 241 75 365 52z"/>
<path d="M9240 3069 c-225 -48 -459 -175 -605 -328 -34 -36 -41 -24 84 -129
l84 -71 59 47 c117 93 195 144 293 193 261 129 495 118 629 -32 64 -72 86
-137 86 -259 l0 -99 -37 -10 c-21 -5 -139 -32 -263 -61 -545 -127 -679 -180
-831 -331 -120 -118 -179 -258 -179 -422 0 -146 49 -268 149 -368 116 -116
258 -166 446 -156 227 12 446 111 642 291 39 36 73 66 76 66 2 0 7 -37 11 -82
3 -46 14 -117 24 -158 l17 -75 139 -3 138 -3 -7 38 c-4 21 -14 72 -22 113 -12
60 -17 205 -23 705 -8 685 -8 690 -67 813 -43 90 -168 209 -273 260 -120 59
-183 73 -340 78 -109 3 -153 0 -230 -17z m630 -1193 l0 -314 -97 -63 c-242
-157 -460 -232 -629 -216 -112 11 -198 64 -252 156 -24 41 -27 56 -27 141 0
88 2 100 34 160 52 99 136 176 262 238 57 28 142 62 189 76 79 24 496 134 513
135 4 1 7 -140 7 -313z"/>
<path d="M14734 3075 c-88 -19 -193 -66 -266 -118 -75 -53 -193 -175 -263
-270 l-50 -69 -3 216 -2 216 -135 0 -135 0 0 -985 0 -985 135 0 135 0 0 453
c0 248 5 484 10 522 53 372 236 625 520 721 39 13 85 19 158 19 95 0 103 2
107 20 5 23 35 253 35 266 0 14 -176 9 -246 -6z"/>
<path d="M17215 3074 c-149 -33 -307 -111 -432 -213 l-63 -51 0 120 0 120
-135 0 -135 0 0 -1360 0 -1361 133 3 132 3 3 498 2 498 53 -44 c123 -104 259
-178 403 -219 64 -18 104 -22 209 -22 118 0 138 3 222 31 125 42 212 93 299
176 121 114 193 239 248 428 38 133 49 247 43 441 -4 145 -9 190 -32 277 -57
218 -122 341 -249 466 -99 99 -190 154 -321 195 -93 30 -280 36 -380 14z m345
-265 c193 -92 310 -253 354 -488 21 -109 21 -368 1 -484 -29 -168 -88 -287
-191 -391 -101 -103 -227 -156 -365 -156 -172 0 -399 92 -584 237 l-55 43 2
503 3 502 90 68 c101 77 280 169 370 192 41 10 99 14 180 12 115 -3 124 -4
195 -38z"/>
<path d="M15432 2068 l3 -983 135 0 135 0 3 983 2 982 -140 0 -140 0 2 -982z"/>
</g>
</svg>
