<svg xmlns="http://www.w3.org/2000/svg" width="1600" height="900" viewBox="0 0 1600 900" role="img" aria-labelledby="title desc">
  <title id="title">Límites de agente IA</title>
  <desc id="desc">Portada editorial original de NexOps Insights.</desc>
  <defs>
    <linearGradient id="background" x1="0" y1="0" x2="1600" y2="900" gradientUnits="userSpaceOnUse"><stop stop-color="#07111f"/><stop offset=".58" stop-color="#111b34"/><stop offset="1" stop-color="#25134d"/></linearGradient>
    <linearGradient id="photoWash" x1="0" y1="0" x2="1600" y2="0" gradientUnits="userSpaceOnUse"><stop stop-color="#020617" stop-opacity=".04"/><stop offset=".53" stop-color="#020617" stop-opacity=".28"/><stop offset="1" stop-color="#020617" stop-opacity=".91"/></linearGradient>
    <linearGradient id="accent" x1="0" y1="0" x2="1" y2="1"><stop stop-color="#8b5cf6"/><stop offset="1" stop-color="#f43f5e"/></linearGradient>
    <filter id="shadow" x="-30%" y="-30%" width="160%" height="160%"><feDropShadow dx="0" dy="22" stdDeviation="26" flood-color="#020617" flood-opacity=".28"/></filter>
    <filter id="glow" x="-100%" y="-100%" width="300%" height="300%"><feGaussianBlur stdDeviation="16"/></filter>
  </defs>
  <rect width="1600" height="900" fill="url(#background)"/>
      <ellipse cx="170" cy="790" rx="520" ry="330" fill="#f43f5e" opacity=".07"/>
      <ellipse cx="1450" cy="90" rx="430" ry="300" fill="#8b5cf6" opacity=".1"/>
  <g><text x="120" y="170" font-family="Inter,Arial,sans-serif" font-size="21" font-weight="800" fill="#cbd5e1" letter-spacing=".12em">PERMISOS · APROBACIÓN · ESCALAMIENTO</text>
        <circle cx="800" cy="440" r="235" fill="#8b5cf6" opacity=".08" stroke="#a78bfa" stroke-width="3" stroke-dasharray="14 12"/><rect x="660" y="300" width="280" height="280" rx="48" fill="url(#accent)" stroke="#c4b5fd" filter="url(#shadow)"/><text x="800" y="414" font-family="Inter,Arial,sans-serif" font-size="78" font-weight="850" fill="#ffffff" text-anchor="middle">AI</text><text x="800" y="470" font-family="Inter,Arial,sans-serif" font-size="20" font-weight="850" fill="#ede9fe" text-anchor="middle" letter-spacing=".16em">AGENTE</text>
        <rect x="150" y="250" width="330" height="120" rx="20" fill="#111d31" stroke="#475569" /><text x="174" y="292" font-family="Inter,Arial,sans-serif" font-size="17" font-weight="700" fill="#e2e8f0" >LEER CRM</text><rect x="174" y="312" width="180" height="42" rx="21" fill="#16a34a" stroke="none" /><text x="264" y="340" font-family="Inter,Arial,sans-serif" font-size="17" font-weight="700" fill="#f8fafc" text-anchor="middle" letter-spacing=".04em">PERMITIDO</text><rect x="150" y="520" width="330" height="120" rx="20" fill="#111d31" stroke="#475569" /><text x="174" y="562" font-family="Inter,Arial,sans-serif" font-size="17" font-weight="700" fill="#e2e8f0" >ENVIAR BORRADOR</text><rect x="174" y="582" width="180" height="42" rx="21" fill="#f59e0b" stroke="none" /><text x="264" y="610" font-family="Inter,Arial,sans-serif" font-size="17" font-weight="700" fill="#f8fafc" text-anchor="middle" letter-spacing=".04em">APROBACIÓN</text><rect x="1120" y="250" width="330" height="120" rx="20" fill="#111d31" stroke="#475569" /><text x="1144" y="292" font-family="Inter,Arial,sans-serif" font-size="17" font-weight="700" fill="#e2e8f0" >CAMBIAR PRECIO</text><rect x="1144" y="312" width="180" height="42" rx="21" fill="#e11d48" stroke="none" /><text x="1234" y="340" font-family="Inter,Arial,sans-serif" font-size="17" font-weight="700" fill="#f8fafc" text-anchor="middle" letter-spacing=".04em">BLOQUEADO</text><rect x="1120" y="520" width="330" height="120" rx="20" fill="#111d31" stroke="#475569" /><text x="1144" y="562" font-family="Inter,Arial,sans-serif" font-size="17" font-weight="700" fill="#e2e8f0" >CASO AMBIGUO</text><rect x="1144" y="582" width="180" height="42" rx="21" fill="#2563eb" stroke="none" /><text x="1234" y="610" font-family="Inter,Arial,sans-serif" font-size="17" font-weight="700" fill="#f8fafc" text-anchor="middle" letter-spacing=".04em">HUMANO</text>
        <path d="M 490 310 L 624 385" fill="none" stroke="#22c55e" stroke-width="5" stroke-linecap="round" /><path d="M 622 375 L 640 385 L 622 395" fill="none" stroke="#22c55e" stroke-width="5" stroke-linecap="round" stroke-linejoin="round"/><path d="M 490 580 L 624 500" fill="none" stroke="#f59e0b" stroke-width="5" stroke-linecap="round" /><path d="M 622 490 L 640 500 L 622 510" fill="none" stroke="#f59e0b" stroke-width="5" stroke-linecap="round" stroke-linejoin="round"/><path d="M 960 385 L 1094 310" fill="none" stroke="#e11d48" stroke-width="5" stroke-linecap="round" /><path d="M 1092 300 L 1110 310 L 1092 320" fill="none" stroke="#e11d48" stroke-width="5" stroke-linecap="round" stroke-linejoin="round"/><path d="M 960 500 L 1094 580" fill="none" stroke="#2563eb" stroke-width="5" stroke-linecap="round" /><path d="M 1092 570 L 1110 580 L 1092 590" fill="none" stroke="#2563eb" stroke-width="5" stroke-linecap="round" stroke-linejoin="round"/></g>
  <g opacity=".55">
    <rect x="1472" y="54" width="54" height="28" rx="14" fill="#07111f" fill-opacity=".72" stroke="#ffffff" stroke-opacity=".18"/>
    <text x="1499" y="74" font-family="Inter,Arial,sans-serif" font-size="15" font-weight="850" fill="#e2e8f0" text-anchor="middle">N</text>
  </g>
</svg>
