<svg xmlns="http://www.w3.org/2000/svg" width="1800" height="1370" viewBox="0 0 1800 1370">
    <rect width="1800" height="1370" fill="#020617"/>
    <text x="24" y="34" font-family="Inter,Arial,sans-serif" font-size="15" font-weight="750" fill="#94a3b8" letter-spacing=".1em">CONTACT SHEET FINAL · CARD 400 × 225</text>
    <rect x="24" y="50" width="420" height="250" rx="14" fill="#0f172a" stroke="#334155"/><image href="./ai-overviews-de-google-ya-impacta-el-trafico-web-y-el-seo.svg" x="34" y="60" width="400" height="225" preserveAspectRatio="xMidYMid meet"/><text x="36" y="295" font-family="Inter,Arial,sans-serif" font-size="10" font-weight="650" fill="#cbd5e1">ai-overviews-de-google-ya-impacta-el-trafico-web-y-el-seo</text><rect x="468" y="50" width="420" height="250" rx="14" fill="#0f172a" stroke="#334155"/><image href="./como-armar-pipeline-ventas-crm.svg" x="478" y="60" width="400" height="225" preserveAspectRatio="xMidYMid meet"/><text x="480" y="295" font-family="Inter,Arial,sans-serif" font-size="10" font-weight="650" fill="#cbd5e1">como-armar-pipeline-ventas-crm</text><rect x="912" y="50" width="420" height="250" rx="14" fill="#0f172a" stroke="#334155"/><image href="./como-integrar-whatsapp-con-un-crm-para-no-perder-leads.svg" x="922" y="60" width="400" height="225" preserveAspectRatio="xMidYMid meet"/><text x="924" y="295" font-family="Inter,Arial,sans-serif" font-size="10" font-weight="650" fill="#cbd5e1">como-integrar-whatsapp-con-un-crm-para-no-perder-leads</text><rect x="1356" y="50" width="420" height="250" rx="14" fill="#0f172a" stroke="#334155"/><image href="./ia-necesita-contexto-del-negocio.svg" x="1366" y="60" width="400" height="225" preserveAspectRatio="xMidYMid meet"/><text x="1368" y="295" font-family="Inter,Arial,sans-serif" font-size="10" font-weight="650" fill="#cbd5e1">ia-necesita-contexto-del-negocio</text><rect x="24" y="312" width="420" height="250" rx="14" fill="#0f172a" stroke="#334155"/><image href="./la-burbuja-de-la-ia-no-esta-en-wall-street.svg" x="34" y="322" width="400" height="225" preserveAspectRatio="xMidYMid meet"/><text x="36" y="557" font-family="Inter,Arial,sans-serif" font-size="10" font-weight="650" fill="#cbd5e1">la-burbuja-de-la-ia-no-esta-en-wall-street</text><rect x="468" y="312" width="420" height="250" rx="14" fill="#0f172a" stroke="#334155"/><image href="./meta-business-agent-whatsapp-leads-ventas.svg" x="478" y="322" width="400" height="225" preserveAspectRatio="xMidYMid meet"/><text x="480" y="557" font-family="Inter,Arial,sans-serif" font-size="10" font-weight="650" fill="#cbd5e1">meta-business-agent-whatsapp-leads-ventas</text><rect x="912" y="312" width="420" height="250" rx="14" fill="#0f172a" stroke="#334155"/><image href="./openai-enfrenta-demanda-por-presunta-filtracion-de-datos-a-meta-y-google.svg" x="922" y="322" width="400" height="225" preserveAspectRatio="xMidYMid meet"/><text x="924" y="557" font-family="Inter,Arial,sans-serif" font-size="10" font-weight="650" fill="#cbd5e1">openai-enfrenta-demanda-por-presunta-filtracion-de-datos-a-meta-y-google</text><rect x="1356" y="312" width="420" height="250" rx="14" fill="#0f172a" stroke="#334155"/><image href="./que-procesos-automatizar-primero-pyme.svg" x="1366" y="322" width="400" height="225" preserveAspectRatio="xMidYMid meet"/><text x="1368" y="557" font-family="Inter,Arial,sans-serif" font-size="10" font-weight="650" fill="#cbd5e1">que-procesos-automatizar-primero-pyme</text><rect x="24" y="574" width="420" height="250" rx="14" fill="#0f172a" stroke="#334155"/><image href="./rpa-vs-automatizacion-api.svg" x="34" y="584" width="400" height="225" preserveAspectRatio="xMidYMid meet"/><text x="36" y="819" font-family="Inter,Arial,sans-serif" font-size="10" font-weight="650" fill="#cbd5e1">rpa-vs-automatizacion-api</text><rect x="468" y="574" width="420" height="250" rx="14" fill="#0f172a" stroke="#334155"/><image href="./whatsapp-crm-circuito-automatico-seguimiento-leads.svg" x="478" y="584" width="400" height="225" preserveAspectRatio="xMidYMid meet"/><text x="480" y="819" font-family="Inter,Arial,sans-serif" font-size="10" font-weight="650" fill="#cbd5e1">whatsapp-crm-circuito-automatico-seguimiento-leads</text><rect x="912" y="574" width="420" height="250" rx="14" fill="#0f172a" stroke="#334155"/><image href="./agente-ia-no-es-empleado-digital-limites.svg" x="922" y="584" width="400" height="225" preserveAspectRatio="xMidYMid meet"/><text x="924" y="819" font-family="Inter,Arial,sans-serif" font-size="10" font-weight="650" fill="#cbd5e1">agente-ia-no-es-empleado-digital-limites</text><rect x="1356" y="574" width="420" height="250" rx="14" fill="#0f172a" stroke="#334155"/><image href="./agentes-ia-produccion-control-limites.svg" x="1366" y="584" width="400" height="225" preserveAspectRatio="xMidYMid meet"/><text x="1368" y="819" font-family="Inter,Arial,sans-serif" font-size="10" font-weight="650" fill="#cbd5e1">agentes-ia-produccion-control-limites</text><rect x="24" y="836" width="420" height="250" rx="14" fill="#0f172a" stroke="#334155"/><image href="./automatizar-un-proceso-roto-falla-mas-rapido.svg" x="34" y="846" width="400" height="225" preserveAspectRatio="xMidYMid meet"/><text x="36" y="1081" font-family="Inter,Arial,sans-serif" font-size="10" font-weight="650" fill="#cbd5e1">automatizar-un-proceso-roto-falla-mas-rapido</text><rect x="468" y="836" width="420" height="250" rx="14" fill="#0f172a" stroke="#334155"/><image href="./big-tech-frena-regulaciones-mas-duras-sobre-ia-en-eeuu.svg" x="478" y="846" width="400" height="225" preserveAspectRatio="xMidYMid meet"/><text x="480" y="1081" font-family="Inter,Arial,sans-serif" font-size="10" font-weight="650" fill="#cbd5e1">big-tech-frena-regulaciones-mas-duras-sobre-ia-en-eeuu</text><rect x="912" y="836" width="420" height="250" rx="14" fill="#0f172a" stroke="#334155"/><image href="./como-automatizar-reportes-de-ventas.svg" x="922" y="846" width="400" height="225" preserveAspectRatio="xMidYMid meet"/><text x="924" y="1081" font-family="Inter,Arial,sans-serif" font-size="10" font-weight="650" fill="#cbd5e1">como-automatizar-reportes-de-ventas</text><rect x="1356" y="836" width="420" height="250" rx="14" fill="#0f172a" stroke="#334155"/><image href="./solicitud-interna-flujo-automatico-trabajo.svg" x="1366" y="846" width="400" height="225" preserveAspectRatio="xMidYMid meet"/><text x="1368" y="1081" font-family="Inter,Arial,sans-serif" font-size="10" font-weight="650" fill="#cbd5e1">solicitud-interna-flujo-automatico-trabajo</text><rect x="24" y="1098" width="420" height="250" rx="14" fill="#0f172a" stroke="#334155"/><image href="./como-hacer-dashboard-indicadores-gestion.svg" x="34" y="1108" width="400" height="225" preserveAspectRatio="xMidYMid meet"/><text x="36" y="1343" font-family="Inter,Arial,sans-serif" font-size="10" font-weight="650" fill="#cbd5e1">como-hacer-dashboard-indicadores-gestion</text>
  </svg>
